<svg id="visual" viewBox="0 0 1400 100" width="1400" height="100" xmlns="http://www.w3.org/2000/svg" xmlns:xlink="http://www.w3.org/1999/xlink" version="1.1"><rect x="0" y="0" width="1400" height="100" fill="#004a7c"></rect><path d="M0 45L11.7 47.3C23.3 49.7 46.7 54.3 70 61.5C93.3 68.7 116.7 78.3 140 77C163.3 75.7 186.7 63.3 210 58.8C233.3 54.3 256.7 57.7 280 57.2C303.3 56.7 326.7 52.3 350 46.7C373.3 41 396.7 34 420 33.8C443.3 33.7 466.7 40.3 490 44.7C513.3 49 536.7 51 560 54.7C583.3 58.3 606.7 63.7 630 64.5C653.3 65.3 676.7 61.7 700 58.7C723.3 55.7 746.7 53.3 770 47.3C793.3 41.3 816.7 31.7 840 36.7C863.3 41.7 886.7 61.3 910 69C933.3 76.7 956.7 72.3 980 67.2C1003.3 62 1026.7 56 1050 53.3C1073.3 50.7 1096.7 51.3 1120 49.5C1143.3 47.7 1166.7 43.3 1190 47.7C1213.3 52 1236.7 65 1260 65.8C1283.3 66.7 1306.7 55.3 1330 47.5C1353.3 39.7 1376.7 35.3 1388.3 33.2L1400 31" fill="none" stroke-linecap="round" stroke-linejoin="miter" stroke="#4FACF7" stroke-width="5"></path></svg>