<svg id="visual" viewBox="0 0 1800 500" width="1800" height="500" xmlns="http://www.w3.org/2000/svg" xmlns:xlink="http://www.w3.org/1999/xlink" version="1.1"><rect x="0" y="0" width="1800" height="500" fill="#004a7c"></rect><defs><linearGradient id="grad1_0" x1="72.2%" y1="100%" x2="100%" y2="0%"><stop offset="-22%" stop-color="#004a7c" stop-opacity="1"></stop><stop offset="122%" stop-color="#004a7c" stop-opacity="1"></stop></linearGradient></defs><defs><linearGradient id="grad2_0" x1="0%" y1="100%" x2="27.8%" y2="0%"><stop offset="-22%" stop-color="#004a7c" stop-opacity="1"></stop><stop offset="122%" stop-color="#004a7c" stop-opacity="1"></stop></linearGradient></defs><g transform="translate(1800, 500)"><path d="M-500 0C-467.1 -24.9 -434.3 -49.7 -421.5 -74.3C-408.7 -98.9 -416 -123.2 -423.8 -154.3C-431.7 -185.3 -440.1 -223.2 -425.2 -245.5C-410.3 -267.8 -372.1 -274.5 -351.6 -295C-331.1 -315.6 -328.2 -350 -309.8 -369.2C-291.4 -388.5 -257.5 -392.6 -228 -394.9C-198.5 -397.2 -173.6 -397.7 -151.9 -417.2C-130.1 -436.8 -111.6 -475.4 -86.8 -492.4C-62.1 -509.4 -31 -504.7 0 -500L0 0Z" fill="#4FACF7"></path></g><g transform="translate(0, 0)"><path d="M500 0C464.7 23.1 429.3 46.3 429.4 75.7C429.4 105.1 464.9 140.8 469.8 171C474.8 201.2 449.4 225.9 421.8 243.5C394.2 261.1 364.4 271.5 341.7 286.7C318.9 301.9 303.1 321.9 284.8 339.4C266.5 356.8 245.7 371.6 225 389.7C204.3 407.8 183.8 429.1 159.4 437.9C135 446.6 106.7 442.8 79.5 451C52.3 459.3 26.2 479.6 0 500L0 0Z" fill="#4FACF7"></path></g></svg>